<?xml version="1.0" encoding="UTF-8" standalone="no"?> <svg id="icons" xmlns="http://www.w3.org/2000/svg" viewBox="0 0 340 340"><title>18_wardrobe</title><rect x="43.252" y="21.05" width="253.495" height="299.362" style="fill:#3c3e4f"/><rect x="-105.698" y="171.462" width="297.9" height="17.514" transform="translate(223.471 136.966) rotate(90)" style="fill:#ffaf9f"/><rect x="52.009" y="60.159" width="235.981" height="14.99" style="fill:#fff"/><rect x="21.05" y="171.462" width="297.9" height="17.514" transform="translate(350.219 10.219) rotate(90)" style="fill:#ffaf9f"/><rect x="178.757" y="217.07" width="109.233" height="17.514" transform="translate(466.747 451.654) rotate(180)" style="fill:#ffaf9f"/><rect x="178.757" y="311.655" width="109.233" height="17.514" transform="translate(466.747 640.824) rotate(180)" style="fill:#ffaf9f"/><path d="M206.658,294.141h53.432a4.173,4.173,0,0,1,4.173,4.173v1.731a11.609,11.609,0,0,1-11.609,11.609h-38.56a11.609,11.609,0,0,1-11.609-11.609v-1.731A4.173,4.173,0,0,1,206.658,294.141Z" transform="translate(466.747 605.795) rotate(180)" style="fill:#9bacbf"/><path d="M206.658,276.626h53.432a4.173,4.173,0,0,1,4.173,4.173v1.731a11.609,11.609,0,0,1-11.609,11.609h-38.56a11.609,11.609,0,0,1-11.609-11.609V280.8A4.173,4.173,0,0,1,206.658,276.626Z" transform="translate(466.747 570.767) rotate(-180)" style="fill:#dfe3ea"/><path d="M214.094,259.112h38.559a11.61,11.61,0,0,1,11.61,11.61v1.731a4.173,4.173,0,0,1-4.174,4.173H206.658a4.173,4.173,0,0,1-4.174-4.173v-1.731A11.61,11.61,0,0,1,214.094,259.112Z" style="fill:#fff"/><rect x="147.797" y="171.462" width="297.9" height="17.514" transform="translate(476.966 -116.528) rotate(90)" style="fill:#ffaf9f"/><rect x="52.009" y="217.07" width="109.233" height="112.099" style="fill:#ffaf9f"/><rect x="287.99" y="31.269" width="17.514" height="14.143" style="fill:#c96969"/><rect x="161.243" y="31.269" width="17.514" height="14.143" style="fill:#c96969"/><rect x="34.495" y="31.269" width="17.514" height="14.143" style="fill:#c96969"/><rect x="34.495" y="10.831" width="271.009" height="20.438" style="fill:#ffaf9f"/><rect x="52.009" y="217.069" width="14.143" height="112.099" style="fill:#c96969"/><rect x="147.1" y="217.069" width="14.143" height="112.099" style="fill:#c96969"/><rect x="74.961" y="84.59" width="19.859" height="97.515" rx="7.429" style="fill:#fff"/><rect x="117.379" y="84.59" width="19.859" height="97.515" rx="7.429" style="fill:#fff"/><rect x="203.757" y="84.59" width="19.859" height="97.515" rx="7.429" style="fill:#fff"/><rect x="246.175" y="84.59" width="19.859" height="97.515" rx="7.429" style="fill:#fff"/><path d="M31.014,329.169a3.481,3.481,0,0,0,3.481,3.482h271.01a3.482,3.482,0,0,0,3.481-3.482V32.366a3.427,3.427,0,0,0-.055-.549,3.4,3.4,0,0,0,.055-.548V10.831a3.482,3.482,0,0,0-3.481-3.482H34.495a3.481,3.481,0,0,0-3.481,3.482V31.269a3.4,3.4,0,0,0,.037.367,3.4,3.4,0,0,0-.037.367Zm17.514-3.482H37.977V34.751H48.528V325.687ZM157.761,78.631V213.588H55.491V78.631ZM55.491,220.552h102.27v48.123H55.491ZM157.761,71.667H128.812V63.641h28.949Zm-35.912,0H88.372V63.641h33.477Zm-40.44,0H55.491V63.641H81.409ZM55.491,275.638h102.27v50.049H55.491ZM157.761,56.677H128.812v-.8a3.482,3.482,0,1,0-6.963,0v.8H88.372v-.8a3.482,3.482,0,1,0-6.963,0v.8H55.491V34.751h102.27Zm6.964-21.926h10.55V325.687h-10.55Zm119.783,0V56.677H255.559v-.8a3.482,3.482,0,1,0-6.963,0v.8H218.151v-.8a3.482,3.482,0,1,0-6.963,0v.8H182.239V34.751ZM205.966,273.145v-.377a10.185,10.185,0,0,1,10.173-10.174h34.469a10.185,10.185,0,0,1,10.173,10.174v.377Zm10.173,17.514H205.966v-.377a10.185,10.185,0,0,1,10.173-10.174h34.469a10.185,10.185,0,0,1,10.173,10.174v.377H216.139ZM205.966,307.8a10.185,10.185,0,0,1,10.173-10.174h34.469A10.185,10.185,0,0,1,260.781,307.8v.377H205.966Zm58.393-10.183a3.477,3.477,0,0,0,3.386-3.473v-3.858a17.022,17.022,0,0,0-3.386-10.183,3.478,3.478,0,0,0,3.386-3.473v-3.858a17.156,17.156,0,0,0-17.137-17.137H216.139A17.156,17.156,0,0,0,199,272.768v3.858a3.478,3.478,0,0,0,3.386,3.473A17.022,17.022,0,0,0,199,290.282v3.858a3.477,3.477,0,0,0,3.386,3.473A17.022,17.022,0,0,0,199,307.8v.377H182.239V238.066H284.508v70.107H267.745V307.8A17.022,17.022,0,0,0,264.359,297.613Zm-82.12-77.061H284.508V231.1H182.239Zm102.269-6.964H182.239V78.631H284.508Zm0-141.921H255.559V63.641h28.949Zm-35.912,0H218.151V63.641H248.6Zm-37.408,0H182.239V63.641h28.949Zm-28.949,243.47H284.508v10.55H182.239Zm109.232,10.55V34.751h10.552V325.687ZM37.977,14.313H302.023V27.787H37.977Z" style="fill:#3c3e4f"/><path d="M82.389,185.587h5A10.924,10.924,0,0,0,98.3,174.676V92.019A10.923,10.923,0,0,0,87.391,81.108h-5a10.922,10.922,0,0,0-10.91,10.911v82.657A10.923,10.923,0,0,0,82.389,185.587ZM78.443,92.019a3.951,3.951,0,0,1,3.946-3.948h5a3.952,3.952,0,0,1,3.947,3.948v82.657a3.951,3.951,0,0,1-3.947,3.947h-5a3.951,3.951,0,0,1-3.946-3.947Z" style="fill:#3c3e4f"/><path d="M124.808,185.587h5a10.924,10.924,0,0,0,10.911-10.911V92.019a10.923,10.923,0,0,0-10.911-10.911h-5A10.923,10.923,0,0,0,113.9,92.019v82.657A10.923,10.923,0,0,0,124.808,185.587ZM120.86,92.019a3.952,3.952,0,0,1,3.948-3.948h5a3.952,3.952,0,0,1,3.947,3.948v82.657a3.952,3.952,0,0,1-3.947,3.947h-5a3.952,3.952,0,0,1-3.948-3.947Z" style="fill:#3c3e4f"/><path d="M216.187,81.108h-5a10.923,10.923,0,0,0-10.911,10.911v82.657a10.923,10.923,0,0,0,10.911,10.911h5A10.924,10.924,0,0,0,227.1,174.676V92.019A10.923,10.923,0,0,0,216.187,81.108Zm3.947,93.568a3.952,3.952,0,0,1-3.947,3.947h-5a3.952,3.952,0,0,1-3.948-3.947V92.019a3.952,3.952,0,0,1,3.948-3.948h5a3.952,3.952,0,0,1,3.947,3.948Z" style="fill:#3c3e4f"/><path d="M242.693,92.019v82.657A10.923,10.923,0,0,0,253.6,185.587h5a10.924,10.924,0,0,0,10.911-10.911V92.019a10.923,10.923,0,0,0-10.911-10.911h-5A10.923,10.923,0,0,0,242.693,92.019Zm6.964,0a3.952,3.952,0,0,1,3.947-3.948h5a3.952,3.952,0,0,1,3.947,3.948v82.657a3.952,3.952,0,0,1-3.947,3.947h-5a3.952,3.952,0,0,1-3.947-3.947Z" style="fill:#3c3e4f"/><path d="M113.74,241.132H99.216a3.482,3.482,0,1,0,0,6.963H113.74a3.482,3.482,0,1,0,0-6.963Z" style="fill:#3c3e4f"/><path d="M113.74,297.181H99.216a3.482,3.482,0,1,0,0,6.963H113.74a3.482,3.482,0,1,0,0-6.963Z" style="fill:#3c3e4f"/></svg>